<svg xmlns="http://www.w3.org/2000/svg" class="w-16 h-16 md:w-[6.25rem] md:h-auto" viewBox="0 0 184.31 95.043">
    <g id="Group_372" data-name="Group 372" transform="translate(-581.108 -50.946)">
        <g id="Group_11" data-name="Group 11" transform="translate(581.108 50.946)">
            <g id="Group_9" data-name="Group 9" transform="translate(0 0)">
                <path id="Path_9" data-name="Path 9" d="M581.113,50.95q19.746-.011,39.5,0c9,.012,18.207-.051,26.9,2.4a23.009,23.009,0,0,1,13.084,9.7c4.122,5.936,5.114,13.359,3.82,20.226a23.421,23.421,0,0,1-9.387,14.792c-4.857,3.482-10.883,5.238-16.9,6.04a46.02,46.02,0,0,1,14.711,12.436c7.307,9.484,13.559,19.61,20.286,29.444-8.219-.023-16.441.063-24.657-.043-4.433-6.275-9-12.471-13.479-18.715-3.753-5.188-7.425-10.446-11.706-15.283a16.073,16.073,0,0,0-9.782-5.215,80.662,80.662,0,0,0-11.8-.464q-.012,19.857,0,39.723-10.293,0-20.585,0Q581.1,98.468,581.113,50.95ZM601.726,67.1c-.063,8.051-.012,16.1-.025,24.159,9.24-.074,18.488.21,27.719-.312,2.757-.233,5.673-.3,8.135-1.62a10.743,10.743,0,0,0,5.82-8.393c.357-3.015.076-6.3-1.853-8.853a13.558,13.558,0,0,0-10.849-4.9C621.026,67.035,611.374,67.16,601.726,67.1Z" transform="translate(-581.108 -50.946)"/>
            </g>
            <path id="Path_10" data-name="Path 10" d="M780.427,51.528a23.7,23.7,0,0,1,11.811,1.161,13.412,13.412,0,0,1,8.425,10.146,14.811,14.811,0,0,1-3.416,11.649c-3.617,4.537-8.428,8.078-13,11.751-3.378,2.734-7.093,5.27-9.5,8.853,8.714.019,17.425-.016,26.139.019,0,1.94,0,3.879,0,5.819q-17.648.029-35.3.008c-.038-4.21,2.533-7.949,5.357-11.061,4.723-5.009,10.769-8.705,15.858-13.363,2.828-2.567,5.66-5.394,6.836-8.981a8.038,8.038,0,0,0-1.824-8.261c-3.194-3.326-8.887-3.762-13.059-1.889a9.247,9.247,0,0,0-5.151,8.79c-2.257-.117-4.5-.4-6.748-.6a14.6,14.6,0,0,1,13.555-14.045Z" transform="translate(-666.145 -51.095)"/>
            <g id="Group_10" data-name="Group 10" transform="translate(139.596 0.372)">
                <path id="Path_11" data-name="Path 11" d="M864.445,51.653c1.789-.027,3.584-.015,5.378-.011q.012,16.013,0,32.027c2.395.011,4.79,0,7.19.008-.034,1.878.1,3.758-.08,5.632-2.37-.07-4.744-.023-7.11-.031-.008,3.942,0,7.883-.008,11.825-2.189,0-4.378.008-6.563,0q.007-5.906,0-11.813-11.578-.029-23.148,0c.088-1.908-.256-3.895.151-5.752C848.285,72.88,856.407,62.29,864.445,51.653ZM846.591,83.669c5.567-.028,11.134.081,16.7-.054-.071-7.4-.012-14.792-.029-22.188Q854.9,72.526,846.591,83.669Z" transform="translate(-840.06 -51.636)"/>
            </g>
        </g>
        <path id="Path_12" data-name="Path 12" d="M841.445,150.743a65.55,65.55,0,0,1-18.526,9.5,83.47,83.47,0,0,1-49.485,1.725A74.734,74.734,0,0,1,748.9,150.821a1.3,1.3,0,0,1-.1-1.971,2.092,2.092,0,0,1,1.63-.331c4.27,1.675,8.185,3.412,12.74,4.947a97.809,97.809,0,0,0,36.888,4.561,111.833,111.833,0,0,0,39.779-9.807,1.892,1.892,0,0,1,2.516.424C842.857,149.454,842.139,150.276,841.445,150.743Z" transform="translate(-77.104 -44.702)"/>
    </g>
</svg>
